<svg height="512pt" viewBox="0 -1 512 512" width="512pt" xmlns="http://www.w3.org/2000/svg"><path d="m155.664062 402.335938c-7.847656 0-15.363281 6.898437-15 15 .363282 8.125 6.589844 15 15 15 7.84375 0 15.363282-6.902344 15-15-.363281-8.128907-6.59375-15-15-15zm0 0"/><path d="m366.992188 432.335938c7.847656 0 15.363281-6.902344 15-15-.363282-8.128907-6.589844-15-15-15-7.847657 0-15.363282 6.898437-15 15 .363281 8.125 6.589843 15 15 15zm0 0"/><path d="m0 385.339844h27.007812v93.988281h26.640626v30.398437h30v-30.398437h344.703124v30.398437h30v-30.398437h26.640626v-93.988281h27.007812v-30h-512zm57.007812 0h183.992188v63.988281h-183.992188zm397.984376 63.988281h-183.992188v-63.988281h183.992188zm0 0"/><path d="m256 323.773438c72.78125 0 131.996094-59.210938 131.996094-131.996094v-59.78125c0-72.78125-59.214844-131.996094-131.996094-131.996094s-131.996094 59.214844-131.996094 131.996094v59.78125c0 72.785156 59.214844 131.996094 131.996094 131.996094zm0-30c-35.398438 0-66.636719-18.128907-84.933594-45.585938l186.929688-92.082031v35.671875c0 56.242187-45.753906 101.996094-101.996094 101.996094zm-101.582031-92.859376 199.34375-98.007812c1.914062 6.414062 3.210937 13.089844 3.820312 19.960938l-199.292969 98.171874c-1.941406-6.464843-3.253906-13.195312-3.871093-20.125zm101.582031-170.914062c14.675781 0 28.636719 3.121094 41.257812 8.726562l-93.792968 46.203126 13.253906 26.910156 109.371094-53.875c5.625 5.332031 10.640625 11.292968 14.941406 17.773437l-187.027344 91.953125v-35.695312c0-56.238282 45.753906-101.996094 101.996094-101.996094zm0 0"/><path d="m453.488281 273.007812h30v28.332032h-30zm0 0"/><path d="m453.488281 214.3125h30v28.152344h-30zm0 0"/><path d="m424.976562 242.824219h28.332032v30h-28.332032zm0 0"/><path d="m483.628906 242.824219h28.371094v30h-28.371094zm0 0"/><path d="m398.40625 295.421875h28.375v30h-28.375zm0 0"/></svg>
