<svg height="512pt" viewBox="-89 0 512 512" width="512pt" xmlns="http://www.w3.org/2000/svg"><path d="m223.769531 370.914062v-17.632812c0-44.390625-25.988281-82.824219-63.542969-100.890625v-52.230469h-33.316406v-200.160156h-30.050781v200.160156h-32.941406v52.054688c-37.757813 17.996094-63.917969 56.53125-63.917969 101.066406 0 87.519531 71.203125 158.71875 158.71875 158.71875h176.085938v-30.050781c-61.226563 0-111.035157-49.808594-111.035157-111.035157zm-129.800781-140.703124h36.207031v12.691406c-5.953125-.984375-12.0625-1.503906-18.289062-1.503906-6.101563 0-12.082031.496093-17.917969 1.441406zm64.75 251.738281c-70.949219 0-128.667969-57.71875-128.667969-128.667969 0-45.121094 36.710938-81.832031 81.835938-81.832031 45.121093 0 81.832031 36.710937 81.832031 81.832031 0 0 .148438 24.703125.40625 28.1875h-22.378906c-19.78125 0-35.875-16.09375-35.875-35.875h-30.050782c0 36.351562 29.574219 65.925781 65.925782 65.925781h27.929687c2.167969 7.210938 4.914063 14.175781 8.15625 20.851563h-40.152343c-47.851563 0-86.78125-38.925782-86.78125-86.777344h-30.046876c0 64.417969 52.40625 116.828125 116.828126 116.828125h59.832031c6.117187 7.160156 12.929687 13.710937 20.34375 19.527344zm0 0"/></svg>
