<svg height="512pt" viewBox="0 0 512 512" width="512pt" xmlns="http://www.w3.org/2000/svg"><path d="m298.421875 30c-6.195313-17.457031-22.867187-30-42.421875-30-24.8125 0-45 20.1875-45 45s20.1875 45 45 45c19.554688 0 36.226562-12.542969 42.421875-30h183.578125v212h-31.425781c-2.078125-37.132812-11.859375-71.765625-28.070313-98.785156-19.816406-33.027344-46.988281-51.214844-76.503906-51.214844h-180c-65.101562 0-100.707031 80.984375-104.574219 150h-31.425781v-60h-30v90h61.425781c3.886719 69.34375 39.765625 150 104.574219 150h45v60h240v-210h61v-272zm-42.421875 30c-8.269531 0-15-6.730469-15-15s6.730469-15 15-15 15 6.730469 15 15-6.730469 15-15 15zm151.941406 152h-46.941406v30h55.535156c2.882813 14.148438 4.464844 29.3125 4.464844 45 0 73.179688-34.347656 135-75 135h-119.023438c5.554688-6.183594 10.753907-13.265625 15.527344-21.214844 18.375-30.628906 28.496094-71.039062 28.496094-113.785156 0-15.421875-1.324219-30.535156-3.871094-45h63.871094v-30h-71.21875c-6.910156-21.605469-17.648438-43.125-32.800781-60h119.019531c25.378906 0 48.296875 24.09375 61.941406 60zm-316.453125 90h30.359375c3.15625 27.800781 17 60 44.152344 60 31.699219 0 45-42.691406 45-75 0-32.769531-13.535156-75-45-75-27.285156 0-41.023438 32.4375-44.152344 60h-30.359375c4.296875-66.429688 36.667969-120 74.511719-120 40.652344 0 75 61.820312 75 135s-34.347656 135-75 135c-37.84375 0-70.214844-53.570312-74.511719-120zm88.414063 0c-1.234375 8.238281-7.5 30-13.902344 30-6.640625 0-12.789062-22.5625-13.902344-30zm-27.804688-30c1.234375-8.238281 7.5-30 13.902344-30 6.640625 0 12.789062 22.5625 13.902344 30zm88.902344 210v-30h105c28.777344 0 55.324219-17.300781 75-48.777344v78.777344zm0 0"/></svg>
