<svg height="511pt" viewBox="0 1 511 511.9995" width="511pt" xmlns="http://www.w3.org/2000/svg"><path d="m456.742188 416.582031c17.511718-17.511719 17.570312-46.023437 0-63.613281l-21.207032-21.199219c-8.136718-8.136719-18.644531-12.496093-29.328125-13.074219-.582031-10.683593-4.9375-21.191406-13.074219-29.335937l-21.210937-21.203125c-3.707031-3.714844-7.925781-6.636719-12.425781-8.773438l12.425781-12.425781c17.574219-17.574219 17.582031-46.03125 0-63.609375l-10.664063-10.667968 54.746094-55.40625-10.535156-10.535157c-17.542969-17.539062-17.542969-46.066406 0-63.609375 17.539062-17.542968 46.066406-17.542968 63.609375 0 17.542969 17.542969 17.542969 46.070313 0 63.609375l21.199219 21.203125c29.238281-29.226562 29.238281-76.785156 0-106.011718-29.226563-29.238282-76.785156-29.238282-106.011719 0-25.628906 25.617187-28.785156 65.320312-9.496094 94.414062l-34.714843 35.136719-10.535157-10.546875c-17.539062-17.53125-46.078125-17.53125-63.609375 0l-10.605468 10.605468-10.605469-10.605468c-17.53125-17.53125-46.070313-17.53125-63.601563 0l-10.335937 10.335937-52.648438-55.40625-10.875 10.875c-17.539062 17.542969-46.066406 17.535157-63.609375 0-17.542968-17.539062-17.542968-46.066406 0-63.609375 17.542969-17.542968 46.070313-17.542968 63.609375 0l21.203125-21.199218c-29.226562-29.238282-76.785156-29.238282-106.015625 0-29.234375 29.226562-29.234375 76.785156 0 106.011718 25.511719 25.519532 64.992188 28.757813 94.058594 9.734375l33.066406 34.804688-10.863281 10.867187c-17.578125 17.574219-17.582031 46.027344 0 63.609375l12.421875 12.425781c-4.496094 2.136719-8.707031 5.058594-12.421875 8.773438l-21.203125 21.210938c-8.144531 8.136718-12.492187 18.644531-13.082031 29.328124-10.675782.578126-21.191406 4.9375-29.328125 13.074219l-21.199219 21.210938c-17.542969 17.53125-17.542969 46.070312 0 63.601562l10.59375 10.605469-63.613281 63.613281 21.210937 21.199219 63.613282-63.613281 10.59375 10.605469c17.515624 17.515624 46.046874 17.566406 63.613281 0l21.210937-21.199219c8.136719-8.148438 12.492188-18.652344 13.074219-29.328125 10.675781-.589844 21.191406-4.945313 29.324219-13.082032l21.203125-21.203124c4.816406-4.816407 8.394531-10.523438 10.605469-16.75 2.207031 6.226562 5.796874 11.933593 10.605468 16.75l21.199219 21.203124c8.148437 8.144532 18.652344 12.492188 29.328125 13.082032.589844 10.675781 4.9375 21.179687 13.082031 29.328125l21.203125 21.199219c17.542969 17.542968 46.078125 17.535156 63.609375 0l10.605469-10.605469 63.613281 63.613281 21.199219-21.199219-63.609375-63.613281zm-190.832032-233.234375 21.199219-21.203125c5.847656-5.847656 15.363281-5.847656 21.210937 0l42.402344 42.402344c5.832032 5.851563 5.875 15.3125 0 21.210937l-21.203125 21.199219c-5.847656 5.847657-15.363281 5.847657-21.210937 0l-42.398438-42.410156c-5.878906-5.878906-5.832031-15.371094 0-21.199219zm-106.023437 21.199219 42.410156-42.402344c5.84375-5.863281 15.347656-5.875 21.199219 0l12.40625 12.40625c-2.507813 5.257813-3.976563 10.972657-4.296875 16.921875-10.675781.589844-21.171875 4.949219-29.308594 13.074219l-21.199219 21.210937c-3.71875 3.707032-6.636718 7.925782-8.785156 12.421876l-12.425781-12.421876c-5.832031-5.851562-5.878907-15.3125 0-21.210937zm0 212.035156-21.199219 21.210938c-5.847656 5.847656-15.355469 5.847656-21.203125 0l-42.410156-42.410157c-5.832031-5.832031-5.875-15.324218 0-21.203124l21.199219-21.199219c5.867187-5.863281 15.335937-5.875 21.210937 0l42.402344 42.402343c5.847656 5.847657 5.847656 15.363282 0 21.199219zm63.609375-63.601562-21.199219 21.199219c-5.847656 5.847656-15.351563 5.847656-21.199219 0l-42.410156-42.410157c-5.847656-5.847656-5.847656-15.351562 0-21.199219l21.199219-21.203124c5.847656-5.847657 15.363281-5.847657 21.210937 0l42.398438 42.402343c5.882812 5.902344 5.855468 15.335938 0 21.210938zm21.203125-42.410157-42.402344-42.414062c-5.875-5.875-5.828125-15.367188 0-21.199219l21.199219-21.199219c5.808594-5.828124 15.304687-5.910156 21.210937 0l42.402344 42.398438c2.828125 2.839844 4.398437 6.597656 4.398437 10.605469 0 4.011719-1.570312 7.769531-4.398437 10.605469l-21.199219 21.203124c-5.847656 5.847657-15.363281 5.847657-21.210937 0zm63.609375 63.609376-21.199219-21.210938c-5.832031-5.832031-5.878906-15.300781 0-21.199219l42.410156-42.402343c5.828125-5.84375 15.367188-5.855469 21.203125 0l21.199219 21.203124c5.863281 5.839844 5.875 15.34375 0 21.199219l-42.402344 42.410157c-5.847656 5.847656-15.363281 5.847656-21.210937 0zm127.226562 21.203124-42.402344 42.410157c-5.847656 5.847656-15.363281 5.847656-21.210937 0l-21.199219-21.210938c-5.847656-5.835937-5.847656-15.351562 0-21.199219l42.410156-42.402343c5.828126-5.847657 15.363282-5.855469 21.199219 0l21.203125 21.199219c5.847656 5.847656 5.847656 15.355468 0 21.203124zm0 0"/></svg>
