<svg id="Layer_1" enable-background="new 0 0 512 512" height="512" viewBox="0 0 512 512" width="512" xmlns="http://www.w3.org/2000/svg"><path d="m91 272v30h31.991l30 210h206.019l30-210h31.99v-30c-13.816 0-58.818 0-72.026 0l71.3-157.756-9.345-88.586-72.667 51.519-7.262 16.067v-63.244h-90v-30h-90v92h-60v120h30v-90h30v150c-15.154 0-44.768 0-60 0zm88.009 210-17.143-120h188.267l-17.143 120zm175.41-150h-196.838l-4.286-30h205.409zm7.83-235.054 24.222-17.173 3.115 29.528-73.534 162.699h-32.922zm-61.249-36.946v32h-30v30h30v30h-30v30h19.885l-40.677 90h-9.208v-212zm-120-30h30v62h-30zm0 92h30v150h-30z"/></svg>
