<svg xmlns="http://www.w3.org/2000/svg" style="display:none"><symbol id="arrow-icon" viewBox="0 0 451.847 451.847"><path d="M225.923 354.706c-8.098 0-16.195-3.092-22.369-9.263L9.27 151.157c-12.359-12.359-12.359-32.397 0-44.751 12.354-12.354 32.388-12.354 44.748 0l171.905 171.915 171.906-171.909c12.359-12.354 32.391-12.354 44.744 0 12.365 12.354 12.365 32.392 0 44.751L248.292 345.449c-6.177 6.172-14.274 9.257-22.369 9.257z"/></symbol><symbol id="basket-icon" viewBox="0 0 486.569 486.569"><path d="M146.069 320.369h268.1c30.4 0 55.2-24.8 55.2-55.2v-112.8-.4-.8c0-.2 0-.4-.1-.6 0-.2-.1-.5-.1-.7s-.1-.4-.1-.6c-.1-.2-.1-.4-.2-.7-.1-.2-.1-.4-.2-.6-.1-.2-.1-.4-.2-.6-.1-.2-.2-.4-.3-.7-.1-.2-.2-.4-.3-.5l-.3-.6c-.1-.2-.2-.3-.3-.5-.1-.2-.3-.4-.4-.6-.1-.2-.2-.3-.4-.5-.1-.2-.3-.3-.4-.5s-.3-.3-.4-.5-.3-.3-.4-.4l-.5-.5c-.2-.1-.3-.3-.5-.4-.2-.1-.4-.3-.6-.4-.2-.1-.3-.2-.5-.3s-.4-.2-.6-.4l-.6-.3-.6-.3-.6-.3c-.2-.1-.4-.1-.6-.2-.2-.1-.5-.2-.7-.2s-.4-.1-.5-.1c-.3-.1-.5-.1-.8-.1-.1 0-.2-.1-.4-.1l-339.8-46.9v-47.4c0-.5 0-1-.1-1.4 0-.1 0-.2-.1-.4 0-.3-.1-.6-.1-.9-.1-.3-.1-.5-.2-.8 0-.2-.1-.3-.1-.5l-.3-.9c0-.1-.1-.3-.1-.4-.1-.3-.2-.5-.4-.8-.1-.1-.1-.3-.2-.4-.1-.2-.2-.4-.4-.6-.1-.2-.2-.3-.3-.5s-.2-.3-.3-.5-.3-.4-.4-.6l-.3-.3-.6-.6-.3-.3c-.2-.2-.4-.4-.7-.6-.1-.1-.3-.2-.4-.3-.2-.2-.4-.3-.6-.5-.3-.2-.6-.4-.8-.5-.1-.1-.2-.1-.3-.2-.4-.2-.9-.4-1.3-.6l-73.7-31c-6.9-2.9-14.8.3-17.7 7.2s.3 14.8 7.2 17.7l65.4 27.6v295.8c0 28 21 51.2 48.1 54.7-4.9 8.2-7.8 17.8-7.8 28 0 30.1 24.5 54.5 54.5 54.5s54.5-24.5 54.5-54.5c0-10-2.7-19.5-7.5-27.5h121.4c-4.8 8.1-7.5 17.5-7.5 27.5 0 30.1 24.5 54.5 54.5 54.5s54.5-24.5 54.5-54.5-24.5-54.5-54.5-54.5h-255c-15.6 0-28.2-12.7-28.2-28.2v-36.6c8.2 4.8 17.9 7.6 28.2 7.6zm67.2 111.6c0 15.2-12.4 27.5-27.5 27.5s-27.5-12.4-27.5-27.5 12.4-27.5 27.5-27.5 27.5 12.3 27.5 27.5zm215.4 0c0 15.2-12.4 27.5-27.5 27.5s-27.5-12.4-27.5-27.5 12.4-27.5 27.5-27.5 27.5 12.3 27.5 27.5zm-14.5-138.6h-268.1c-15.6 0-28.2-12.7-28.2-28.2v-145.9l324.5 44.7v101.1c0 15.7-12.7 28.3-28.2 28.3z"/></symbol><symbol id="catalog-icon-dishwasher" viewBox="0 0 511.99963 511"><path d="M278.555 58.664h28.53V88.57h-28.53zm0 0M386.867 88.57c7.824 0 15.317-6.875 14.957-14.953-.363-8.101-6.574-14.953-14.957-14.953-7.82 0-15.312 6.879-14.953 14.953.363 8.102 6.57 14.953 14.953 14.953zm0 0M341.582 88.57c7.82 0 15.313-6.875 14.953-14.953-.363-8.101-6.57-14.953-14.953-14.953-7.824 0-15.316 6.879-14.957 14.953.363 8.102 6.57 14.953 14.957 14.953zm0 0M158.184 234.254h29.906v28.242h-29.906zm0 0M158.184 175.742h29.906v28.063h-29.906zm0 0M188.273 204.164h28.243v29.906h-28.243zm0 0M129.762 204.164h28.285v29.906h-28.285zm0 0"/><path d="M466.457 415.387c11.27-2.887 21.61-8.977 29.598-17.668 11.425-12.438 17.156-29.219 15.73-46.047l-5.043-59.422h-40.285V.5H0v466.46h22.918c20.629 26.673 52.93 43.88 89.18 43.88 36.254 0 68.554-17.207 89.183-43.88h95.153v14.126h-30.59v29.906h91.09v-29.906H326.34V466.96h110.21v14.125h-30.59v29.906h91.09v-29.906h-30.59v-65.7zm15.527-61.184c.735 8.633-2.09 16.902-7.953 23.281-5.863 6.383-13.86 9.895-22.527 9.895-8.664 0-16.664-3.512-22.524-9.895-5.863-6.379-8.687-14.648-7.953-23.28l2.72-32.048h55.519zM436.551 30.406v87.563H29.906V30.406zM112.098 480.934c-42.34 0-77.336-31.957-82.192-73.016v-19.543c4.856-41.059 39.852-73.016 82.192-73.016 45.652 0 82.789 37.137 82.789 82.786 0 45.652-37.137 82.789-82.79 82.789zM326.34 437.05v-21.664c11.27-2.883 21.613-8.977 29.598-17.668 11.425-12.438 17.16-29.219 15.73-46.047l-5.043-59.418H256.152l-5.043 59.418c-1.43 16.828 4.305 33.613 15.73 46.047 7.985 8.691 18.325 14.785 29.595 17.668v21.664h-78.567c4.477-12.13 6.926-25.239 6.926-38.903 0-62.14-50.555-112.695-112.695-112.695-32.383 0-61.618 13.734-82.192 35.68V147.875h406.645v144.379H396.27l-5.043 59.418c-1.43 16.828 4.304 33.613 15.73 46.047 7.984 8.691 18.324 14.785 29.594 17.668v21.664zm-14.953-49.672c-8.664 0-16.664-3.512-22.528-9.895-5.859-6.379-8.683-14.648-7.953-23.28l2.723-32.048h55.52l2.718 32.047c.735 8.633-2.09 16.902-7.953 23.281-5.863 6.383-13.863 9.895-22.527 9.895zm0 0"/><path d="M112.098 355.559c-23.48 0-42.59 19.105-42.59 42.59 0 23.48 19.11 42.585 42.59 42.585 23.484 0 42.59-19.105 42.59-42.586 0-23.484-19.106-42.59-42.59-42.59zm0 55.27c-6.993 0-12.68-5.688-12.68-12.68 0-6.997 5.687-12.684 12.68-12.684 6.996 0 12.683 5.687 12.683 12.683 0 6.993-5.691 12.68-12.683 12.68zm0 0M211.523 256.598h28.29v29.91h-28.29zm0 0"/></symbol><symbol id="catalog-icon-furniture" viewBox="0 -1 512 512"><path d="M155.664 402.336c-7.848 0-15.363 6.898-15 15 .363 8.125 6.59 15 15 15 7.844 0 15.363-6.902 15-15-.363-8.129-6.594-15-15-15zm0 0M366.992 432.336c7.848 0 15.363-6.902 15-15-.363-8.129-6.59-15-15-15-7.847 0-15.363 6.898-15 15 .363 8.125 6.59 15 15 15zm0 0"/><path d="M0 385.34h27.008v93.988h26.64v30.399h30v-30.399h344.704v30.399h30v-30.399h26.64V385.34H512v-30H0zm57.008 0H241v63.988H57.008zm397.984 63.988H271V385.34h183.992zm0 0M256 323.773c72.781 0 131.996-59.21 131.996-131.996v-59.78C387.996 59.214 328.781 0 256 0S124.004 59.215 124.004 131.996v59.781c0 72.786 59.215 131.996 131.996 131.996zm0-30c-35.398 0-66.637-18.128-84.934-45.586l186.93-92.082v35.672c0 56.243-45.754 101.996-101.996 101.996zm-101.582-92.859l199.344-98.008a100.941 100.941 0 0 1 3.82 19.961L158.289 221.04a101.106 101.106 0 0 1-3.871-20.125zM256 30c14.676 0 28.637 3.121 41.258 8.727L203.465 84.93l13.254 26.91 109.37-53.875a102.867 102.867 0 0 1 14.942 17.773l-187.027 91.953v-35.695C154.004 75.758 199.758 30 256 30zm0 0M453.488 273.008h30v28.332h-30zm0 0M453.488 214.313h30v28.152h-30zm0 0M424.977 242.824h28.332v30h-28.332zm0 0M483.629 242.824H512v30h-28.371zm0 0M398.406 295.422h28.375v30h-28.375zm0 0"/></symbol><symbol id="catalog-icon-mop" viewBox="-89 0 512 512"><path d="M223.77 370.914v-17.633c0-44.39-25.989-82.824-63.543-100.89v-52.23H126.91V0H96.86v200.16H63.917v52.055C26.16 270.21 0 308.746 0 353.28 0 440.801 71.203 512 158.719 512h176.086v-30.05c-61.227 0-111.035-49.81-111.035-111.036zM93.969 230.211h36.207v12.691a112.043 112.043 0 0 0-36.207-.062zm64.75 251.738c-70.95 0-128.668-57.719-128.668-128.668 0-45.12 36.71-81.832 81.836-81.832 45.12 0 81.832 36.711 81.832 81.832 0 0 .148 24.703.406 28.188h-22.379c-19.781 0-35.875-16.094-35.875-35.875h-30.05c0 36.351 29.574 65.926 65.925 65.926h27.93a140.017 140.017 0 0 0 8.156 20.851H167.68c-47.852 0-86.782-38.926-86.782-86.777H50.852c0 64.418 52.406 116.828 116.828 116.828h59.832a142.285 142.285 0 0 0 20.343 19.527zm0 0"/></symbol><symbol id="catalog-icon-skewer" viewBox="0 1 511 511.9995"><path d="M456.742 416.582c17.512-17.512 17.57-46.023 0-63.613l-21.207-21.2c-8.137-8.136-18.644-12.496-29.328-13.074-.582-10.683-4.937-21.191-13.074-29.336l-21.211-21.203a44.479 44.479 0 0 0-12.426-8.773l12.426-12.426c17.574-17.574 17.582-46.031 0-63.61l-10.664-10.667 54.746-55.407-10.535-10.535c-17.543-17.539-17.543-46.066 0-63.61 17.539-17.542 46.066-17.542 63.61 0 17.542 17.544 17.542 46.071 0 63.61l21.198 21.203c29.239-29.226 29.239-76.785 0-106.011-29.226-29.239-76.785-29.239-106.011 0-25.63 25.617-28.786 65.32-9.496 94.414l-34.715 35.136-10.535-10.546c-17.54-17.532-46.079-17.532-63.61 0l-10.605 10.605-10.606-10.605c-17.531-17.532-46.07-17.532-63.601 0l-10.336 10.336-52.649-55.407-10.875 10.875c-17.539 17.543-46.066 17.535-63.61 0-17.542-17.539-17.542-46.066 0-63.61 17.544-17.542 46.071-17.542 63.61 0l21.203-21.198C99.215-7.31 51.656-7.31 22.426 21.93c-29.235 29.226-29.235 76.785 0 106.011 25.512 25.52 64.992 28.758 94.058 9.735l33.067 34.804-10.863 10.868c-17.579 17.574-17.583 46.027 0 63.609l12.421 12.426a44.63 44.63 0 0 0-12.421 8.773l-21.204 21.211c-8.144 8.137-12.492 18.645-13.082 29.328-10.675.578-21.191 4.938-29.328 13.075l-21.199 21.21c-17.543 17.532-17.543 46.07 0 63.602l10.594 10.606L.855 490.8 22.066 512l63.614-63.613 10.593 10.605c17.516 17.516 46.047 17.567 63.614 0l21.21-21.199c8.137-8.148 12.493-18.652 13.075-29.328 10.676-.59 21.191-4.945 29.324-13.082L244.7 374.18c4.817-4.817 8.395-10.524 10.606-16.75 2.207 6.226 5.797 11.933 10.605 16.75l21.2 21.203c8.148 8.144 18.652 12.492 29.327 13.082.59 10.676 4.938 21.18 13.083 29.328l21.203 21.2c17.543 17.542 46.078 17.534 63.609 0l10.606-10.606L488.55 512l21.199-21.2-63.61-63.612zM265.91 183.348l21.2-21.203c5.847-5.848 15.363-5.848 21.21 0l42.403 42.402c5.832 5.851 5.875 15.312 0 21.21l-21.203 21.2c-5.848 5.848-15.364 5.848-21.211 0l-42.399-42.41c-5.879-5.879-5.832-15.371 0-21.2zm-106.023 21.199l42.41-42.402c5.844-5.864 15.348-5.875 21.2 0l12.405 12.406a44.79 44.79 0 0 0-4.297 16.922c-10.675.59-21.171 4.949-29.308 13.074l-21.2 21.21a44.722 44.722 0 0 0-8.784 12.423l-12.426-12.422c-5.832-5.852-5.88-15.313 0-21.211zm0 212.035l-21.2 21.211c-5.847 5.848-15.355 5.848-21.203 0l-42.41-42.41c-5.832-5.832-5.875-15.324 0-21.203l21.2-21.2c5.867-5.863 15.335-5.875 21.21 0l42.403 42.403c5.847 5.847 5.847 15.363 0 21.199zm63.61-63.602l-21.2 21.2c-5.848 5.847-15.352 5.847-21.2 0l-42.41-42.41c-5.847-5.848-5.847-15.352 0-21.2l21.2-21.203c5.847-5.847 15.363-5.847 21.21 0l42.4 42.403a14.977 14.977 0 0 1 0 21.21zm21.202-42.41l-42.402-42.414c-5.875-5.875-5.828-15.367 0-21.199l21.2-21.2c5.808-5.827 15.304-5.91 21.21 0l42.402 42.4c2.829 2.84 4.399 6.597 4.399 10.605 0 4.011-1.57 7.77-4.399 10.605L265.91 310.57c-5.847 5.848-15.363 5.848-21.21 0zm63.61 63.61l-21.2-21.211c-5.832-5.832-5.879-15.301 0-21.2l42.41-42.402c5.829-5.844 15.368-5.855 21.204 0l21.199 21.203c5.863 5.84 5.875 15.344 0 21.2l-42.402 42.41c-5.848 5.847-15.364 5.847-21.211 0zm127.226 21.203l-42.402 42.41c-5.848 5.848-15.363 5.848-21.211 0l-21.2-21.211c-5.847-5.836-5.847-15.352 0-21.2l42.41-42.402c5.829-5.847 15.364-5.855 21.2 0l21.203 21.2c5.848 5.847 5.848 15.355 0 21.203zm0 0"/></symbol><symbol id="catalog-icon-stationery" viewBox="0 0 512 512"><path d="M91 272v30h31.991l30 210H359.01l30-210H421v-30h-72.026l71.3-157.756-9.345-88.586-72.667 51.519L331 93.244V30h-90V0h-90v92H91v120h30v-90h30v150H91zm88.009 210l-17.143-120h188.267L332.99 482zm175.41-150H157.581l-4.286-30h205.409zm7.83-235.054l24.222-17.173 3.115 29.528L316.052 272H283.13zM301 60v32h-30v30h30v30h-30v30h19.885l-40.677 90H241V60zM181 30h30v62h-30zm0 92h30v150h-30z"/></symbol><symbol id="catalog-icon-tissue" viewBox="0 0 512 512"><path d="M298.422 30C292.227 12.543 275.555 0 256 0c-24.813 0-45 20.188-45 45s20.188 45 45 45c19.555 0 36.227-12.543 42.422-30H482v212h-31.426c-2.078-37.133-11.86-71.766-28.07-98.785C402.687 140.187 375.516 122 346 122H166c-65.102 0-100.707 80.984-104.574 150H30v-60H0v90h61.426C65.312 371.344 101.19 452 166 452h45v60h240V302h61V30zM256 60c-8.27 0-15-6.73-15-15s6.73-15 15-15 15 6.73 15 15-6.73 15-15 15zm151.941 152H361v30h55.535c2.883 14.148 4.465 29.313 4.465 45 0 73.18-34.348 135-75 135H226.977c5.554-6.184 10.753-13.266 15.527-21.215C260.879 370.156 271 329.746 271 287c0-15.422-1.324-30.535-3.871-45H331v-30h-71.219c-6.91-21.605-17.648-43.125-32.8-60H346c25.379 0 48.297 24.094 61.941 60zM91.488 302h30.36c3.156 27.8 17 60 44.152 60 31.7 0 45-42.691 45-75 0-32.77-13.535-75-45-75-27.285 0-41.023 32.438-44.152 60h-30.36c4.297-66.43 36.668-120 74.512-120 40.652 0 75 61.82 75 135s-34.348 135-75 135c-37.844 0-70.215-53.57-74.512-120zm88.414 0c-1.234 8.238-7.5 30-13.902 30-6.64 0-12.79-22.563-13.902-30zm-27.804-30c1.234-8.238 7.5-30 13.902-30 6.64 0 12.79 22.563 13.902 30zM241 482v-30h105c28.777 0 55.324-17.3 75-48.777V482zm0 0"/></symbol><symbol id="favorit-icon" viewBox="0 0 471.701 471.701"><path d="M433.601 67.001c-24.7-24.7-57.4-38.2-92.3-38.2s-67.7 13.6-92.4 38.3l-12.9 12.9-13.1-13.1c-24.7-24.7-57.6-38.4-92.5-38.4-34.8 0-67.6 13.6-92.2 38.2-24.7 24.7-38.3 57.5-38.2 92.4 0 34.9 13.7 67.6 38.4 92.3l187.8 187.8c2.6 2.6 6.1 4 9.5 4 3.4 0 6.9-1.3 9.5-3.9l188.2-187.5c24.7-24.7 38.3-57.5 38.3-92.4.1-34.9-13.4-67.7-38.1-92.4zm-19.2 165.7l-178.7 178-178.3-178.3c-19.6-19.6-30.4-45.6-30.4-73.3s10.7-53.7 30.3-73.2c19.5-19.5 45.5-30.3 73.1-30.3 27.7 0 53.8 10.8 73.4 30.4l22.6 22.6c5.3 5.3 13.8 5.3 19.1 0l22.4-22.4c19.6-19.6 45.7-30.4 73.3-30.4 27.6 0 53.6 10.8 73.2 30.3 19.6 19.6 30.3 45.6 30.3 73.3.1 27.7-10.7 53.7-30.3 73.3z"/></symbol><symbol id="grid-option-icon" viewBox="0 0 341.333 341.333"><path d="M128 128h85.333v85.333H128zM0 0h85.333v85.333H0zM128 256h85.333v85.333H128zM0 128h85.333v85.333H0zM0 256h85.333v85.333H0zM256 0h85.333v85.333H256zM128 0h85.333v85.333H128zM256 128h85.333v85.333H256zM256 256h85.333v85.333H256z"/></symbol><symbol id="listing-option-icon" viewBox="0 0 560.414 560.415"><path d="M115.65 24.92H33.507C15.031 24.92 0 39.951 0 58.421v82.143c0 18.477 15.031 33.501 33.507 33.501h82.143c18.476 0 33.501-15.031 33.501-33.501V58.421c-.006-18.476-15.031-33.501-33.501-33.501zM526.908 24.92H212.205c-18.477 0-33.501 15.031-33.501 33.501v82.143c0 18.477 15.025 33.501 33.501 33.501h314.703c18.477 0 33.506-15.031 33.506-33.501V58.421c0-18.476-15.037-33.501-33.506-33.501zM115.65 205.632H33.507C15.031 205.632 0 220.663 0 239.133v82.143c0 18.476 15.031 33.5 33.507 33.5h82.143c18.476 0 33.501-15.024 33.501-33.5v-82.143c-.006-18.476-15.031-33.501-33.501-33.501zM526.908 205.632H212.205c-18.477 0-33.501 15.031-33.501 33.501v82.143c0 18.476 15.025 33.5 33.501 33.5h314.703c18.477 0 33.506-15.024 33.506-33.5v-82.143c0-18.476-15.037-33.501-33.506-33.501zM115.65 386.343H33.507C15.031 386.343 0 401.374 0 419.85v82.143c0 18.477 15.031 33.501 33.507 33.501h82.143c18.476 0 33.501-15.024 33.501-33.501V419.85c-.006-18.476-15.031-33.507-33.501-33.507zM526.908 386.343H212.205c-18.477 0-33.501 15.03-33.501 33.507v82.143c0 18.477 15.025 33.501 33.501 33.501h314.703c18.477 0 33.506-15.024 33.506-33.501V419.85c0-18.476-15.037-33.507-33.506-33.507z"/></symbol><symbol id="search-icon" viewBox="0 0 250.313 250.313"><path d="M244.186 214.604l-54.379-54.378c-.289-.289-.628-.491-.93-.76 10.7-16.231 16.945-35.66 16.945-56.554C205.822 46.075 159.747 0 102.911 0S0 46.075 0 102.911c0 56.835 46.074 102.911 102.91 102.911 20.895 0 40.323-6.245 56.554-16.945.269.301.47.64.759.929l54.38 54.38c8.169 8.168 21.413 8.168 29.583 0 8.168-8.169 8.168-21.413 0-29.582zm-141.275-44.458c-37.134 0-67.236-30.102-67.236-67.235 0-37.134 30.103-67.236 67.236-67.236 37.132 0 67.235 30.103 67.235 67.236s-30.103 67.235-67.235 67.235z"/></symbol><symbol id="temp-icon-left-arrow" viewBox="0 0 31.494 31.494"><path d="M10.273 5.01a1.117 1.117 0 0 1 1.587 1.57l-8.047 8.047h26.554c.62 0 1.127.492 1.127 1.11 0 .62-.508 1.128-1.127 1.128H3.813l8.047 8.032c.43.444.43 1.16 0 1.587a1.112 1.112 0 0 1-1.587 0L.32 16.532a1.12 1.12 0 0 1 0-1.57l9.953-9.953z" fill="#1E201D"/></symbol><symbol id="temp-icon-right-arrow" viewBox="0 0 31.49 31.49"><path d="M21.205 5.007a1.117 1.117 0 0 0-1.587 1.57l8.047 8.048H1.11c-.618 0-1.11.493-1.11 1.112 0 .62.492 1.127 1.11 1.127h26.555l-8.047 8.032c-.43.444-.43 1.16 0 1.587.444.444 1.16.444 1.587 0l9.952-9.952a1.092 1.092 0 0 0 0-1.57l-9.952-9.95z" fill="#1E201D"/></symbol><symbol id="user-icon" viewBox="0 0 482.9 482.9"><path d="M239.7 260.2h3.2c29.3-.5 53-10.8 70.5-30.5 38.5-43.4 32.1-117.8 31.4-124.9-2.5-53.3-27.7-78.8-48.5-90.7C280.8 5.2 262.7.4 242.5 0H240.8c-11.1 0-32.9 1.8-53.8 13.7-21 11.9-46.6 37.4-49.1 91.1-.7 7.1-7.1 81.5 31.4 124.9 17.4 19.7 41.1 30 70.4 30.5zm-75.1-152.9c0-.3.1-.6.1-.8 3.3-71.7 54.2-79.4 76-79.4H241.9c27 .6 72.9 11.6 76 79.4 0 .3 0 .6.1.8.1.7 7.1 68.7-24.7 104.5-12.6 14.2-29.4 21.2-51.5 21.4h-1c-22-.2-38.9-7.2-51.4-21.4-31.7-35.6-24.9-103.9-24.8-104.5z"/><path d="M446.8 383.6v-.3c0-.8-.1-1.6-.1-2.5-.6-19.8-1.9-66.1-45.3-80.9-.3-.1-.7-.2-1-.3-45.1-11.5-82.6-37.5-83-37.8-6.1-4.3-14.5-2.8-18.8 3.3-4.3 6.1-2.8 14.5 3.3 18.8 1.7 1.2 41.5 28.9 91.3 41.7 23.3 8.3 25.9 33.2 26.6 56 0 .9 0 1.7.1 2.5.1 9-.5 22.9-2.1 30.9-16.2 9.2-79.7 41-176.3 41-96.2 0-160.1-31.9-176.4-41.1-1.6-8-2.3-21.9-2.1-30.9 0-.8.1-1.6.1-2.5.7-22.8 3.3-47.7 26.6-56 49.8-12.8 89.6-40.6 91.3-41.7 6.1-4.3 7.6-12.7 3.3-18.8-4.3-6.1-12.7-7.6-18.8-3.3-.4.3-37.7 26.3-83 37.8-.4.1-.7.2-1 .3-43.4 14.9-44.7 61.2-45.3 80.9 0 .9 0 1.7-.1 2.5v.3c-.1 5.2-.2 31.9 5.1 45.3 1 2.6 2.8 4.8 5.2 6.3 3 2 74.9 47.8 195.2 47.8s192.2-45.9 195.2-47.8c2.3-1.5 4.2-3.7 5.2-6.3 5-13.3 4.9-40 4.8-45.2z"/></symbol></svg>